<svg xmlns="http://www.w3.org/2000/svg" version="1.1" xmlns:xlink="http://www.w3.org/1999/xlink" xmlns:svgjs="http://svgjs.dev/svgjs" width="1440" height="560" preserveAspectRatio="none" viewBox="0 0 1440 560"><g mask="url(&quot;#SvgjsMask1010&quot;)" fill="none"><rect width="1440" height="560" x="0" y="0" fill="rgba(255, 255, 255, 1)"></rect><path d="M20 140C19.85 128.05 1.71 136.04 0 124.09C-8.29 66.04 -32.89 29.15 0 0C37.11 -32.89 70 0 140 0C210 0 210 0 280 0C350 0 350 0 420 0C490 0 490 0 560 0C630 0 630 0 700 0C770 0 770 0 840 0C910 0 910 0 980 0C1050 0 1050 0 1120 0C1190 0 1190 0 1260 0C1330 0 1330 0 1400 0C1470 0 1505 -35 1540 0C1575 35 1540 70 1540 140C1540 210 1540 210 1540 280C1540 350 1540 350 1540 420C1540 490 1575 525 1540 560C1505 595 1470 560 1400 560C1330 560 1330 560 1260 560C1190 560 1190 560 1120 560C1050 560 1050 560 980 560C910 560 910 560 840 560C770 560 770 560 700 560C630 560 630 560 560 560C490 560 490 560 420 560C383.16 560 346.32 576.15 346.32 560C346.32 536.15 388.22 523.43 420 480C439.44 453.43 448.77 447.49 448.77 420C448.77 403.3 436.82 402.64 420 391.62C352.44 347.37 329.16 301.13 280 309.47C245.52 315.32 282.31 374 252.73 420C212.31 482.85 200.04 478.63 140 527.16C113.45 548.63 112.01 552.39 79.55 560C42.01 568.81 14.41 585.36 0 560C-25.36 515.36 0 490 0 420C0 351.49 -0.97 351.19 0 282.98C0.03 281.19 1.75 281.77 2 280C11.75 210.28 20.85 206 20 140" stroke="rgba(1, 113, 67, 1)" stroke-width="2"></path><path d="M420 112C407.71 112 395.29 127.27 395.29 140C395.29 150.53 407.69 158.53 420 158.53C432.16 158.53 444.23 150.51 444.23 140C444.23 127.24 432.18 112 420 112" stroke="rgba(1, 113, 67, 1)" stroke-width="2"></path><path d="M1400 114.25C1337.71 114.25 1268.24 125.41 1268.24 140C1268.24 154.76 1339.35 172.94 1400 172.94C1419.41 172.94 1428.35 155.6 1428.35 140C1428.35 126.25 1417.77 114.25 1400 114.25" stroke="rgba(1, 113, 67, 1)" stroke-width="2"></path><path d="M700 403.53C693.72 409.16 695.33 412.36 695.33 420C695.33 422.97 697.05 423.23 700 424.75C769.38 460.46 780.59 496 840 494.47C873.03 493.62 884.87 459.59 884.87 420C884.87 357.54 879.98 293.93 840 290.37C787.54 285.7 766.05 344.34 700 403.53" stroke="rgba(1, 113, 67, 1)" stroke-width="2"></path><path d="M1260 385C1222.22 385 1179.5 401.22 1179.5 420C1179.5 439.36 1222.85 461.28 1260 461.28C1284.29 461.28 1302.37 439.77 1302.37 420C1302.37 401.63 1283.65 385 1260 385" stroke="rgba(1, 113, 67, 1)" stroke-width="2"></path><path d="M120 140C107.1 81.58 46.49 98.79 0 44.55C-13.51 28.79 -16.9 5.38 0 0C53.1 -16.9 70 0 140 0C210 0 210 0 280 0C350 0 350 0 420 0C442.64 0 465.29 -7.59 465.29 0C465.29 9.52 439.89 14.13 420 34.22C370.58 84.13 371.72 85.8 326.67 140C301.72 170.01 301.4 170.03 280 202.63C255.45 240.03 248.8 238.07 234.77 280C212.43 346.75 235.98 358.22 207.27 420C188.59 460.19 178.15 458.18 140 483.95C74.51 528.18 37.26 577.02 0 560C-32.74 545.04 0 490 0 420C0 388.73 -10.44 385.55 0 357.45C15.56 315.55 29.51 320.75 52 280C89.51 212.02 133.1 199.3 120 140" stroke="rgba(1, 113, 67, 1)" stroke-width="2"></path><path d="M511.54 140C539.85 113.41 526.37 86.49 560 78.54C620.6 64.22 649.16 118.27 700 95.45C736.66 79 700.56 23.48 735 0C770.56 -24.25 787.5 0 840 0C894.31 0 904.07 -17.03 948.62 0C974.07 9.73 962.39 28.04 980 53.53C1010.75 98.04 1045.33 95.55 1045.33 140C1045.33 189.47 1026.89 225.4 980 241.38C924.22 260.4 910.72 221.05 840 210C770.72 199.18 769.9 196.62 700 197.65C629.9 198.68 619.04 187.81 560 214.12C526.64 228.99 515.2 249.06 515.2 280C515.2 304.86 539.01 301.59 560 325.71C599.91 371.59 596.73 374.44 637 420C666.73 453.62 664.05 457.72 700 484.07C759.55 527.72 828 539.59 828 560C828 577.55 764 560 700 560C630 560 630 560 560 560C496.87 560 448.01 591.59 433.73 560C416.37 521.59 500.74 483.36 496.71 420C493.88 375.52 460.8 379.31 420 344.32C379.17 309.31 333.45 313.05 333.45 280C333.45 245.89 376.25 244.39 420 210C465.29 174.39 469.85 179.14 511.54 140" stroke="rgba(1, 113, 67, 1)" stroke-width="2"></path><path d="M1120 28C1095.02 22.42 1075.79 7.59 1075.79 0C1075.79 -6.41 1097.89 0 1120 0C1190 0 1190 0 1260 0C1330 0 1330 0 1400 0C1470 0 1505 -35 1540 0C1575 35 1540 70 1540 140C1540 191.15 1554.98 198.42 1540 242.31C1531.08 268.42 1500.76 253.11 1492.2 280C1472.46 341.96 1505.02 355.47 1483.4 420C1458.92 493.06 1442.2 487.97 1400 555.17C1398.24 557.97 1398.74 559.89 1395.48 560C1328.74 562.3 1327.74 560 1260 560C1214.35 560 1168.7 572.46 1168.7 560C1168.7 545.53 1218.49 538.49 1260 506.15C1308.35 468.49 1348.42 461.26 1348.42 420C1348.42 381.67 1306.46 380.38 1260 346.96C1209.14 310.38 1153.79 317.3 1153.79 280C1153.79 238.53 1199.47 203.08 1260 189.41C1322.57 175.28 1339.99 238.35 1400 224.41C1446.32 213.65 1472.66 179.97 1472.66 140C1472.66 104.78 1443.13 94.06 1400 74.02C1336.8 44.65 1330.78 52.81 1260 41.18C1190.78 29.8 1187.12 43.01 1120 28" stroke="rgba(1, 113, 67, 1)" stroke-width="2"></path><path d="M929.74 420C951.68 364.28 945.16 311.11 980 311.11C1024.74 311.11 1078.27 357.96 1088.89 420C1099.57 482.4 1065.31 505.1 1022.61 560C1010.86 575.1 1001.31 560 980 560C931 560 892.01 587.9 882 560C866.88 517.9 902.68 488.72 929.74 420" stroke="rgba(1, 113, 67, 1)" stroke-width="2"></path><path d="M140 71.71C93.79 71.71 48.13 20.05 48.13 0C48.13 -15.81 94.06 0 140 0C187.42 0 234.84 -15.91 234.84 0C234.84 19.95 187.14 71.71 140 71.71" stroke="rgba(1, 113, 67, 1)" stroke-width="2"></path><path d="M840 127.27C816.31 127.27 793.33 47.34 793.33 0C793.33 -16.3 816.66 0 840 0C864.14 0 888.28 -16.66 888.28 0C888.28 46.97 863.79 127.27 840 127.27" stroke="rgba(1, 113, 67, 1)" stroke-width="2"></path><path d="M1400 33.79C1364.37 8.68 1318.33 8.78 1318.33 0C1318.33 -8.11 1359.16 0 1400 0C1470 0 1505 -35 1540 0C1575 35 1540 70 1540 140C1540 157.5 1545.24 175 1540 175C1533.72 175 1531.63 154.8 1516.96 140C1461.63 84.2 1463.69 78.68 1400 33.79" stroke="rgba(1, 113, 67, 1)" stroke-width="2"></path><path d="M102 280C119.57 245.16 120.45 211.79 140 211.79C159.91 211.79 176.99 242.5 180.92 280C187.9 346.61 178.69 353.75 161.82 420C158.23 434.12 153.92 440.74 140 440.74C90.51 440.74 42.75 452.8 35 420C23.75 372.43 67.07 349.26 102 280" stroke="rgba(1, 113, 67, 1)" stroke-width="2"></path><path d="M397.09 280C397.09 270.97 408.33 261.47 420 261.47C432.39 261.47 445.2 270.99 445.2 280C445.2 288.77 432.41 297.03 420 297.03C408.35 297.03 397.09 288.75 397.09 280" stroke="rgba(1, 113, 67, 1)" stroke-width="2"></path><path d="M1214.14 280C1214.14 262.09 1232.62 241.49 1260 240.88C1325.55 239.43 1330.43 257.34 1400 275.88C1403.85 276.9 1406.59 276.12 1406.83 280C1411.06 348.18 1411.98 351.13 1408.94 420C1408.57 428.37 1403.79 434.48 1400 434.48C1396.55 434.48 1400.18 425.12 1394.47 420C1330.18 362.34 1328.79 362.31 1260 308.91C1238.62 292.31 1214.14 296.11 1214.14 280" stroke="rgba(1, 113, 67, 1)" stroke-width="2"></path><path d="M544.66 420C549.23 407.1 551.79 397.14 560 397.14C568.8 397.14 568.47 409.35 578.67 420C638.47 482.47 637.16 484.47 700 543.39C711.82 554.47 728 555.54 728 560C728 563.84 714 560 700 560C630 560 630 560 560 560C531.17 560 504.52 579.79 502.35 560C496.85 509.79 520.4 488.53 544.66 420" stroke="rgba(1, 113, 67, 1)" stroke-width="2"></path><path d="M974.62 420C974.62 413.94 976.27 408.33 980 408.33C984.79 408.33 991.67 413.41 991.67 420C991.67 429.25 984.5 440 980 440C975.98 440 974.62 429.77 974.62 420" stroke="rgba(1, 113, 67, 1)" stroke-width="2"></path><path d="M1244.78 560C1244.78 557.59 1252.04 551.03 1260 551.03C1270.94 551.03 1282.58 557.68 1282.58 560C1282.58 562.16 1271.29 560 1260 560C1252.39 560 1244.78 562.08 1244.78 560" stroke="rgba(1, 113, 67, 1)" stroke-width="2"></path></g><defs><mask id="SvgjsMask1010"><rect width="1440" height="560" fill="#ffffff"></rect></mask></defs></svg>